<mxfile host="app.diagrams.net" modified="2023-07-08T09:31:15.715Z" agent="Mozilla/5.0 (Windows NT 10.0; Win64; x64) AppleWebKit/537.36 (KHTML, like Gecko) Chrome/114.0.0.0 Safari/537.36" etag="n-HvlWCpw-13gJc1DNNy" version="21.2.1" type="device">
  <diagram name="Страница 1" id="eSXwx6xNHlX_fREakAKv">
    <mxGraphModel dx="1434" dy="796" grid="1" gridSize="10" guides="1" tooltips="1" connect="1" arrows="1" fold="1" page="1" pageScale="1" pageWidth="827" pageHeight="1169" math="0" shadow="0">
      <root>
        <mxCell id="0" />
        <mxCell id="1" parent="0" />
        <mxCell id="TDfeCV2keK-wyuBo2lr9-1" value="Frontend" style="whiteSpace=wrap;html=1;" vertex="1" parent="1">
          <mxGeometry x="379" y="120" width="70" height="520" as="geometry" />
        </mxCell>
        <mxCell id="TDfeCV2keK-wyuBo2lr9-2" value="API &lt;br&gt;Backend" style="whiteSpace=wrap;html=1;" vertex="1" parent="1">
          <mxGeometry x="670" y="120" width="70" height="520" as="geometry" />
        </mxCell>
        <mxCell id="TDfeCV2keK-wyuBo2lr9-4" value="Создание набора" style="text;html=1;align=center;verticalAlign=middle;resizable=0;points=[];autosize=1;strokeColor=none;fillColor=none;" vertex="1" parent="1">
          <mxGeometry y="8" width="120" height="30" as="geometry" />
        </mxCell>
        <mxCell id="TDfeCV2keK-wyuBo2lr9-5" value="База данных&amp;nbsp;&amp;nbsp;" style="shape=cylinder3;whiteSpace=wrap;html=1;boundedLbl=1;backgroundOutline=1;size=15;" vertex="1" parent="1">
          <mxGeometry x="970" y="200" width="120" height="150" as="geometry" />
        </mxCell>
        <mxCell id="TDfeCV2keK-wyuBo2lr9-6" value="Клиент" style="rounded=0;whiteSpace=wrap;html=1;" vertex="1" parent="1">
          <mxGeometry x="40" y="120" width="80" height="520" as="geometry" />
        </mxCell>
        <mxCell id="TDfeCV2keK-wyuBo2lr9-8" value="" style="endArrow=classic;html=1;rounded=0;" edge="1" parent="1">
          <mxGeometry width="50" height="50" relative="1" as="geometry">
            <mxPoint x="160" y="240" as="sourcePoint" />
            <mxPoint x="360" y="240" as="targetPoint" />
          </mxGeometry>
        </mxCell>
        <mxCell id="TDfeCV2keK-wyuBo2lr9-9" value="1. создает свой набор &lt;br&gt;внутри пользователя:&lt;br&gt;а. задает имя набора&lt;br&gt;б. выбирает продукты" style="text;html=1;align=center;verticalAlign=middle;resizable=0;points=[];autosize=1;strokeColor=none;fillColor=none;" vertex="1" parent="1">
          <mxGeometry x="190" y="170" width="150" height="70" as="geometry" />
        </mxCell>
        <mxCell id="TDfeCV2keK-wyuBo2lr9-10" value="" style="endArrow=classic;html=1;rounded=0;" edge="1" parent="1">
          <mxGeometry width="50" height="50" relative="1" as="geometry">
            <mxPoint x="480" y="290" as="sourcePoint" />
            <mxPoint x="650" y="290" as="targetPoint" />
          </mxGeometry>
        </mxCell>
        <mxCell id="TDfeCV2keK-wyuBo2lr9-11" value="передает запрос к API:&lt;br&gt;&amp;nbsp;протокол HTTP&lt;br&gt;метод POST&amp;nbsp; &amp;nbsp;/api/v1/kits" style="text;html=1;align=center;verticalAlign=middle;resizable=0;points=[];autosize=1;strokeColor=none;fillColor=none;" vertex="1" parent="1">
          <mxGeometry x="480" y="230" width="160" height="60" as="geometry" />
        </mxCell>
        <mxCell id="TDfeCV2keK-wyuBo2lr9-12" value="" style="endArrow=classic;html=1;rounded=0;" edge="1" parent="1">
          <mxGeometry width="50" height="50" relative="1" as="geometry">
            <mxPoint x="770" y="290" as="sourcePoint" />
            <mxPoint x="950" y="290" as="targetPoint" />
          </mxGeometry>
        </mxCell>
        <mxCell id="TDfeCV2keK-wyuBo2lr9-13" value="2. создает свой набор &lt;br&gt;внутри карточки продукта:&lt;br&gt;а. заходит в карточку продукта&lt;br&gt;б. задает имя набора" style="text;html=1;align=center;verticalAlign=middle;resizable=0;points=[];autosize=1;strokeColor=none;fillColor=none;" vertex="1" parent="1">
          <mxGeometry x="160" y="270" width="190" height="70" as="geometry" />
        </mxCell>
        <mxCell id="TDfeCV2keK-wyuBo2lr9-14" value="" style="endArrow=classic;html=1;rounded=0;" edge="1" parent="1">
          <mxGeometry width="50" height="50" relative="1" as="geometry">
            <mxPoint x="160" y="340" as="sourcePoint" />
            <mxPoint x="360" y="340" as="targetPoint" />
          </mxGeometry>
        </mxCell>
        <mxCell id="TDfeCV2keK-wyuBo2lr9-15" value="" style="endArrow=classic;html=1;rounded=0;" edge="1" parent="1">
          <mxGeometry width="50" height="50" relative="1" as="geometry">
            <mxPoint x="640" y="470" as="sourcePoint" />
            <mxPoint x="480" y="470" as="targetPoint" />
          </mxGeometry>
        </mxCell>
        <mxCell id="TDfeCV2keK-wyuBo2lr9-16" value="передает ответ &lt;br&gt;Успешное создание набора:&lt;br&gt;HTTP /1.1 201 Created&amp;nbsp;" style="text;html=1;align=center;verticalAlign=middle;resizable=0;points=[];autosize=1;strokeColor=none;fillColor=none;" vertex="1" parent="1">
          <mxGeometry x="480" y="400" width="180" height="60" as="geometry" />
        </mxCell>
        <mxCell id="TDfeCV2keK-wyuBo2lr9-17" value="" style="endArrow=classic;html=1;rounded=0;" edge="1" parent="1">
          <mxGeometry width="50" height="50" relative="1" as="geometry">
            <mxPoint x="640" y="600" as="sourcePoint" />
            <mxPoint x="480" y="600" as="targetPoint" />
          </mxGeometry>
        </mxCell>
        <mxCell id="TDfeCV2keK-wyuBo2lr9-18" value="передает ответ &lt;br&gt;об ошибке:&lt;br&gt;HTTP /1.1 400 Bad request&amp;nbsp;" style="text;html=1;align=center;verticalAlign=middle;resizable=0;points=[];autosize=1;strokeColor=none;fillColor=none;" vertex="1" parent="1">
          <mxGeometry x="485" y="530" width="170" height="60" as="geometry" />
        </mxCell>
        <mxCell id="TDfeCV2keK-wyuBo2lr9-19" value="передает ответ &lt;br&gt;Успешное создание набора:&lt;br&gt;а. наименование набора&lt;br&gt;б. перечень продуктов в наборе" style="text;html=1;align=center;verticalAlign=middle;resizable=0;points=[];autosize=1;strokeColor=none;fillColor=none;" vertex="1" parent="1">
          <mxGeometry x="155" y="395" width="200" height="70" as="geometry" />
        </mxCell>
        <mxCell id="TDfeCV2keK-wyuBo2lr9-20" value="" style="endArrow=classic;html=1;rounded=0;" edge="1" parent="1">
          <mxGeometry width="50" height="50" relative="1" as="geometry">
            <mxPoint x="360" y="480" as="sourcePoint" />
            <mxPoint x="160" y="480" as="targetPoint" />
          </mxGeometry>
        </mxCell>
        <mxCell id="TDfeCV2keK-wyuBo2lr9-21" value="передает ответ &lt;br&gt;об ошибке:&lt;br&gt;Не все необходимые &lt;br&gt;параметры были переданы" style="text;html=1;align=center;verticalAlign=middle;resizable=0;points=[];autosize=1;strokeColor=none;fillColor=none;" vertex="1" parent="1">
          <mxGeometry x="175" y="525" width="180" height="70" as="geometry" />
        </mxCell>
        <mxCell id="TDfeCV2keK-wyuBo2lr9-22" value="" style="endArrow=classic;html=1;rounded=0;" edge="1" parent="1">
          <mxGeometry width="50" height="50" relative="1" as="geometry">
            <mxPoint x="360" y="600" as="sourcePoint" />
            <mxPoint x="160" y="600" as="targetPoint" />
          </mxGeometry>
        </mxCell>
        <mxCell id="TDfeCV2keK-wyuBo2lr9-23" value="" style="endArrow=classic;html=1;rounded=0;" edge="1" parent="1">
          <mxGeometry width="50" height="50" relative="1" as="geometry">
            <mxPoint x="1000" y="360" as="sourcePoint" />
            <mxPoint x="760" y="470" as="targetPoint" />
            <Array as="points">
              <mxPoint x="1000" y="470" />
            </Array>
          </mxGeometry>
        </mxCell>
        <mxCell id="TDfeCV2keK-wyuBo2lr9-24" value="запрос на создание набора" style="text;html=1;align=center;verticalAlign=middle;resizable=0;points=[];autosize=1;strokeColor=none;fillColor=none;" vertex="1" parent="1">
          <mxGeometry x="780" y="250" width="180" height="30" as="geometry" />
        </mxCell>
        <mxCell id="TDfeCV2keK-wyuBo2lr9-25" value="ответ об успешном создании набора" style="text;html=1;align=center;verticalAlign=middle;resizable=0;points=[];autosize=1;strokeColor=none;fillColor=none;" vertex="1" parent="1">
          <mxGeometry x="765" y="448" width="230" height="30" as="geometry" />
        </mxCell>
        <mxCell id="TDfeCV2keK-wyuBo2lr9-26" value="" style="endArrow=classic;html=1;rounded=0;" edge="1" parent="1">
          <mxGeometry width="50" height="50" relative="1" as="geometry">
            <mxPoint x="1060" y="360" as="sourcePoint" />
            <mxPoint x="760" y="600" as="targetPoint" />
            <Array as="points">
              <mxPoint x="1060" y="600" />
            </Array>
          </mxGeometry>
        </mxCell>
        <mxCell id="TDfeCV2keK-wyuBo2lr9-27" value="ответ об ошибке" style="text;html=1;align=center;verticalAlign=middle;resizable=0;points=[];autosize=1;strokeColor=none;fillColor=none;" vertex="1" parent="1">
          <mxGeometry x="780" y="565" width="120" height="30" as="geometry" />
        </mxCell>
      </root>
    </mxGraphModel>
  </diagram>
</mxfile>
